<svg xmlns="http://www.w3.org/2000/svg" width="136" height="49" viewBox="0 0 136 49" role="img"><title>Scholar</title><rect x="2" y="2" width="132" height="44" rx="14" fill="#15252E" stroke="#2D4652"/><g transform="translate(9 7) scale(0.49)" fill="none" stroke="#D5EAF2" stroke-width="2" stroke-linejoin="round" stroke-linecap="round"><path d="m4 26 28-14 28 14-28 14Z" fill="#213843"/><path d="M16 33v14q16 10 32 0V33M58 28v21"/></g><path fill="#D5EAF2" d="M31 125Q20 149 20 164Q20 185 35.0 199.5Q50 214 71 214Q89 214 102.0 204.0Q115 194 121 177Q137 134 180.0 111.0Q223 88 272 88Q334 88 374.5 117.5Q415 147 415 190Q415 223 382.5 250.0Q350 277 272 299Q171 327 113.0 371.5Q55 416 55 494Q55 547 83.5 588.5Q112 630 165.0 653.0Q218 676 289 676Q391 676 449.5 636.0Q508 596 508 529Q508 507 494.0 492.0Q480 477 459 477Q441 477 428.0 489.0Q415 501 413 519Q409 547 376.0 565.5Q343 584 289 584Q222 584 187.0 561.5Q152 539 152 501Q152 466 188.0 442.0Q224 418 306 394Q407 365 459.0 316.0Q511 267 511 195Q511 139 478.0 93.0Q445 47 389.5 20.5Q334 -6 270 -6Q184 -6 120.5 32.0Q57 70 31 125Z" transform="translate(46.000 31) scale(0.021 -0.021)"/><path fill="#D5EAF2" d="M38 213Q38 281 70.0 346.0Q102 411 154.0 452.0Q206 493 264 493Q317 493 349.5 476.5Q382 460 413 424Q428 408 428 389Q428 370 414.0 356.5Q400 343 380 343Q367 343 359.5 347.0Q352 351 342 363Q325 382 308.5 392.0Q292 402 265 402Q234 402 202.5 375.0Q171 348 151.5 304.5Q132 261 132 215Q132 175 149.5 145.5Q167 116 195.0 100.5Q223 85 254 85Q294 85 319.5 100.0Q345 115 365 141Q384 166 408 166Q427 166 441.0 152.5Q455 139 455 122Q455 102 444 88Q415 49 365.0 21.5Q315 -6 256 -6Q196 -6 146.0 23.0Q96 52 67.0 102.5Q38 153 38 213Z" transform="translate(57.466 31) scale(0.021 -0.021)"/><path fill="#D5EAF2" d="M70 41V617Q70 637 84.5 651.5Q99 666 120 666Q140 666 153.0 651.5Q166 637 166 617V402Q199 444 241.0 469.5Q283 495 325 495Q404 495 436.0 415.5Q468 336 468 164Q468 67 465 39Q464 20 450.5 7.0Q437 -6 418 -6Q397 -6 384.0 7.5Q371 21 371 41Q371 61 372 74L373 157Q373 302 357.5 351.0Q342 400 319 400Q290 400 260.0 373.5Q230 347 208.5 314.5Q187 282 178 263Q166 236 166 192V43Q166 20 152.0 6.5Q138 -7 118 -7Q99 -7 84.5 7.5Q70 22 70 41Z" transform="translate(67.336 31) scale(0.021 -0.021)"/><path fill="#D5EAF2" d="M38 226Q38 297 70.0 358.5Q102 420 156.0 456.5Q210 493 272 493Q329 493 376.5 461.0Q424 429 451.5 376.0Q479 323 479 262Q479 190 447.0 128.5Q415 67 360.5 30.5Q306 -6 244 -6Q187 -6 139.5 25.0Q92 56 65.0 109.5Q38 163 38 226ZM381 257Q381 295 366.0 328.5Q351 362 325.0 382.5Q299 403 268 403Q233 403 202.5 378.5Q172 354 154.0 313.5Q136 273 136 227Q136 182 151.5 150.0Q167 118 191.5 101.0Q216 84 244 84Q279 84 311.0 108.0Q343 132 362.0 172.0Q381 212 381 257Z" transform="translate(78.424 31) scale(0.021 -0.021)"/><path fill="#D5EAF2" d="M70 39V619Q70 639 83.5 652.5Q97 666 118 666Q137 666 151.5 652.0Q166 638 166 619V39Q166 21 151.0 7.5Q136 -6 118 -6Q99 -6 84.5 7.5Q70 21 70 39Z" transform="translate(89.281 31) scale(0.021 -0.021)"/><path fill="#D5EAF2" d="M345 24V38Q304 -6 231 -6Q176 -6 132.0 21.0Q88 48 63.0 97.5Q38 147 38 210Q38 280 68.0 345.5Q98 411 152.5 452.0Q207 493 278 493Q324 493 361.0 480.5Q398 468 438 450V34Q438 14 424.0 -1.0Q410 -16 390 -16Q370 -16 357.5 -5.0Q345 6 345 24ZM340 128 343 389Q314 401 280 401Q237 401 204.0 374.5Q171 348 153.0 304.5Q135 261 135 212Q135 151 162.0 119.0Q189 87 238 87Q267 87 294.5 99.0Q322 111 340 128Z" transform="translate(94.237 31) scale(0.021 -0.021)"/><path fill="#D5EAF2" d="M70 40V445Q70 465 84.5 479.0Q99 493 119 493Q139 493 153.5 479.0Q168 465 168 445V415Q217 495 302 495Q353 495 375.5 467.0Q398 439 398 400V370Q398 350 384.5 336.5Q371 323 351 323Q327 323 315.5 337.0Q304 351 304 371V384Q304 400 282 400Q264 400 240.5 382.0Q217 364 202 344Q181 318 174.5 292.0Q168 266 168 230L167 40Q167 22 152.0 8.0Q137 -6 119 -6Q100 -6 85.0 8.0Q70 22 70 40Z" transform="translate(104.905 31) scale(0.021 -0.021)"/></svg>
