<svg xmlns="http://www.w3.org/2000/svg" width="450" height="150" viewBox="0 0 450 150" role="img"><title>LMM-Track4D: Multi-view object tracking and trajectory reasoning.</title><rect x="1" y="1" width="448" height="144" rx="12" fill="#0D1117" stroke="#2D4652"/><rect x="16" y="16" width="52" height="52" rx="14" fill="#15252E"/><g transform="translate(17 18) scale(0.76)" fill="none" stroke="#D5EAF2" stroke-width="2" stroke-linejoin="round" stroke-linecap="round"><ellipse cx="34" cy="32" rx="26" ry="24" fill="#213843"/><ellipse cx="34" cy="32" rx="12" ry="24"/><path d="M9 31h50M14 19q20 9 40 0M14 45q20-9 40 0"/><path d="m14 55 4 4M54 8l4-4"/></g><path fill="#D5EAF2" d="M75 43V626Q75 646 89.5 660.5Q104 675 125 675Q145 675 159.5 660.5Q174 646 174 626V96L446 114Q467 115 481.0 101.5Q495 88 495 66Q495 48 481.5 32.5Q468 17 450 16L124 -5Q105 -6 90.0 9.0Q75 24 75 43Z" transform="translate(82.000 47) scale(0.029 -0.029)"/><path fill="#D5EAF2" d="M28 36Q28 52 32 69L156 636Q160 654 173.0 664.5Q186 675 205 675Q240 675 251 641L392 198L552 643Q564 675 602 675Q619 675 630.5 664.5Q642 654 646 636L773 70Q778 47 778 40Q778 21 764.0 7.5Q750 -6 729 -6Q709 -6 697.0 4.5Q685 15 681 32L589 450L435 26Q430 11 417.0 2.5Q404 -6 388 -6Q353 -6 342 28L212 435L124 33Q120 15 107.0 4.5Q94 -6 75 -6Q53 -6 40.5 7.0Q28 20 28 36Z" transform="translate(96.877 47) scale(0.029 -0.029)"/><path fill="#D5EAF2" d="M28 36Q28 52 32 69L156 636Q160 654 173.0 664.5Q186 675 205 675Q240 675 251 641L392 198L552 643Q564 675 602 675Q619 675 630.5 664.5Q642 654 646 636L773 70Q778 47 778 40Q778 21 764.0 7.5Q750 -6 729 -6Q709 -6 697.0 4.5Q685 15 681 32L589 450L435 26Q430 11 417.0 2.5Q404 -6 388 -6Q353 -6 342 28L212 435L124 33Q120 15 107.0 4.5Q94 -6 75 -6Q53 -6 40.5 7.0Q28 20 28 36Z" transform="translate(120.251 47) scale(0.029 -0.029)"/><path fill="#D5EAF2" d="M45 244Q45 263 59.5 277.0Q74 291 92 291H317Q337 291 350.5 277.5Q364 264 364 244Q364 225 350.0 211.0Q336 197 317 197H92Q74 197 59.5 211.0Q45 225 45 244Z" transform="translate(143.625 47) scale(0.029 -0.029)"/><path fill="#D5EAF2" d="M212 43V570H55Q35 570 20.5 585.0Q6 600 6 620Q6 641 20.5 655.0Q35 669 55 669H469Q490 669 504.0 655.0Q518 641 518 620Q518 599 504.0 584.5Q490 570 469 570H311V43Q311 23 296.5 8.5Q282 -6 262 -6Q242 -6 227.0 8.5Q212 23 212 43Z" transform="translate(155.486 47) scale(0.029 -0.029)"/><path fill="#D5EAF2" d="M70 40V445Q70 465 84.5 479.0Q99 493 119 493Q139 493 153.5 479.0Q168 465 168 445V415Q217 495 302 495Q353 495 375.5 467.0Q398 439 398 400V370Q398 350 384.5 336.5Q371 323 351 323Q327 323 315.5 337.0Q304 351 304 371V384Q304 400 282 400Q264 400 240.5 382.0Q217 364 202 344Q181 318 174.5 292.0Q168 266 168 230L167 40Q167 22 152.0 8.0Q137 -6 119 -6Q100 -6 85.0 8.0Q70 22 70 40Z" transform="translate(170.682 47) scale(0.029 -0.029)"/><path fill="#D5EAF2" d="M345 24V38Q304 -6 231 -6Q176 -6 132.0 21.0Q88 48 63.0 97.5Q38 147 38 210Q38 280 68.0 345.5Q98 411 152.5 452.0Q207 493 278 493Q324 493 361.0 480.5Q398 468 438 450V34Q438 14 424.0 -1.0Q410 -16 390 -16Q370 -16 357.5 -5.0Q345 6 345 24ZM340 128 343 389Q314 401 280 401Q237 401 204.0 374.5Q171 348 153.0 304.5Q135 261 135 212Q135 151 162.0 119.0Q189 87 238 87Q267 87 294.5 99.0Q322 111 340 128Z" transform="translate(182.369 47) scale(0.029 -0.029)"/><path fill="#D5EAF2" d="M38 213Q38 281 70.0 346.0Q102 411 154.0 452.0Q206 493 264 493Q317 493 349.5 476.5Q382 460 413 424Q428 408 428 389Q428 370 414.0 356.5Q400 343 380 343Q367 343 359.5 347.0Q352 351 342 363Q325 382 308.5 392.0Q292 402 265 402Q234 402 202.5 375.0Q171 348 151.5 304.5Q132 261 132 215Q132 175 149.5 145.5Q167 116 195.0 100.5Q223 85 254 85Q294 85 319.5 100.0Q345 115 365 141Q384 166 408 166Q427 166 441.0 152.5Q455 139 455 122Q455 102 444 88Q415 49 365.0 21.5Q315 -6 256 -6Q196 -6 146.0 23.0Q96 52 67.0 102.5Q38 153 38 213Z" transform="translate(197.101 47) scale(0.029 -0.029)"/><path fill="#D5EAF2" d="M72 42 70 619Q70 638 84.5 652.0Q99 666 119 666Q140 666 153.5 651.5Q167 637 167 617L168 293Q210 329 266.0 386.0Q322 443 361 490Q377 510 400 510Q420 510 433.5 497.0Q447 484 447 464Q447 447 437 435Q411 400 371.5 358.0Q332 316 299 285L464 78Q477 63 477 47Q477 26 463.5 11.5Q450 -3 429 -3Q405 -3 391 14Q313 119 243 206L227 227Q206 211 169 187V42Q169 23 155.0 8.5Q141 -6 120 -6Q102 -6 87.0 8.5Q72 23 72 42Z" transform="translate(210.731 47) scale(0.029 -0.029)"/><path fill="#D5EAF2" d="M284 41V145L79 148Q57 148 44.0 161.0Q31 174 31 195Q31 208 39 222L292 638Q306 661 332 661Q353 661 367.0 647.0Q381 633 381 613V239H391Q411 239 424.0 225.0Q437 211 437 191Q437 171 422.0 157.0Q407 143 387 143H381V41Q381 22 366.0 7.5Q351 -7 332 -7Q312 -7 298.0 7.5Q284 22 284 41ZM284 441 164 244 284 241Z" transform="translate(224.854 47) scale(0.029 -0.029)"/><path fill="#D5EAF2" d="M113 5Q97 10 86.0 24.0Q75 38 75 54V621Q75 642 89.5 656.0Q104 670 125 670Q226 670 329.0 640.0Q432 610 507.5 528.0Q583 446 583 301Q583 196 537.0 125.5Q491 55 412.0 21.5Q333 -12 233 -12Q198 -12 162.0 -5.5Q126 1 113 5ZM483 301Q483 431 398.5 494.0Q314 557 175 568V94Q209 88 233 88Q350 88 416.5 142.0Q483 196 483 301Z" transform="translate(238.455 47) scale(0.029 -0.029)"/><path fill="#A0B7C3" d="M1253 0 1079 941 759 -20H709L380 941L210 0H20L294 1465H385L734 396L1056 1465H1146L1443 0Z" transform="translate(25.000 100) scale(0.009765625 -0.009765625)"/><path fill="#A0B7C3" d="M315 1071V388Q315 140 530 140Q624 140 702.0 194.0Q780 248 805 319V1071H995V0H805V148Q773 85 676.5 32.5Q580 -20 488 -20Q312 -20 218.5 81.0Q125 182 125 368V1071Z" transform="translate(39.189 100) scale(0.009765625 -0.009765625)"/><path fill="#A0B7C3" d="M150 303V1510H340V335Q340 249 389.5 199.5Q439 150 519 150V-20Q150 -20 150 303Z" transform="translate(50.117 100) scale(0.009765625 -0.009765625)"/><path fill="#A0B7C3" d="M203 921H79V1071H203V1295L393 1368V1071H687V921H393V389Q393 254 438.5 197.0Q484 140 585 140Q658 140 736 177L764 10Q646 -20 505 -20Q378 -20 290.5 74.5Q203 169 203 313Z" transform="translate(56.016 100) scale(0.009765625 -0.009765625)"/><path fill="#A0B7C3" d="M331 1476Q380 1476 414.5 1441.5Q449 1407 449 1359Q449 1310 414.5 1275.5Q380 1241 331 1241Q283 1241 248.5 1275.5Q214 1310 214 1359Q214 1408 248.0 1442.0Q282 1476 331 1476ZM227 0V911H80V1071H417V0Z" transform="translate(63.945 100) scale(0.009765625 -0.009765625)"/><path fill="#A0B7C3" d="M159 506V681H587V506Z" transform="translate(69.648 100) scale(0.009765625 -0.009765625)"/><path fill="#A0B7C3" d="M521 -20H471L12 1074H220L503 324L792 1074H991Z" transform="translate(76.992 100) scale(0.009765625 -0.009765625)"/><path fill="#A0B7C3" d="M331 1476Q380 1476 414.5 1441.5Q449 1407 449 1359Q449 1310 414.5 1275.5Q380 1241 331 1241Q283 1241 248.5 1275.5Q214 1310 214 1359Q214 1408 248.0 1442.0Q282 1476 331 1476ZM227 0V911H80V1071H417V0Z" transform="translate(86.787 100) scale(0.009765625 -0.009765625)"/><path fill="#A0B7C3" d="M1037 517H265Q265 329 368 228Q459 140 602 140Q765 140 874 235L954 98Q910 54 819 22Q705 -20 565 -20Q363 -20 222 117Q65 268 65 523Q65 788 226 948Q370 1091 567 1091Q796 1091 926 962Q1052 838 1052 633Q1052 570 1037 517ZM576 931Q449 931 363 849Q281 771 270 655H863Q863 770 791 847Q712 931 576 931Z" transform="translate(92.490 100) scale(0.009765625 -0.009765625)"/><path fill="#A0B7C3" d="M1125 -20H1075L761 709L448 -20H398L15 1074H218L447 371L732 1074H782L1076 371L1322 1074H1509Z" transform="translate(103.398 100) scale(0.009765625 -0.009765625)"/><path fill="#A0B7C3" d="" transform="translate(118.281 100) scale(0.009765625 -0.009765625)"/><path fill="#A0B7C3" d="M65 538Q65 786 198.5 938.5Q332 1091 550 1091Q780 1091 907.0 944.5Q1034 798 1034 538Q1034 279 904.0 129.5Q774 -20 550 -20Q321 -20 193.0 131.0Q65 282 65 538ZM265 538Q265 135 550 135Q683 135 758.5 243.0Q834 351 834 538Q834 936 550 936Q420 936 342.5 830.0Q265 724 265 538Z" transform="translate(124.307 100) scale(0.009765625 -0.009765625)"/><path fill="#A0B7C3" d="M297 77 230 -20H135V1510H325V992Q352 1029 426.5 1060.0Q501 1091 573 1091Q793 1091 929.5 939.0Q1066 787 1066 555Q1066 287 929.0 133.5Q792 -20 558 -20Q482 -20 408.5 8.5Q335 37 297 77ZM325 847V229Q325 213 396.0 176.5Q467 140 504 140Q698 140 782.0 233.0Q866 326 866 545Q866 727 768.0 829.0Q670 931 504 931Q469 931 406.5 901.0Q344 871 325 847Z" transform="translate(135.039 100) scale(0.009765625 -0.009765625)"/><path fill="#A0B7C3" d="M428 1476Q477 1476 511.5 1441.5Q546 1407 546 1359Q546 1310 511.5 1275.5Q477 1241 428 1241Q379 1241 345.0 1275.5Q311 1310 311 1359Q311 1408 345.0 1442.0Q379 1476 428 1476ZM18 -420V-250Q214 -250 286.5 -190.5Q359 -131 359 5V911H146V1071H549V9Q549 -212 419.0 -316.0Q289 -420 18 -420Z" transform="translate(146.182 100) scale(0.009765625 -0.009765625)"/><path fill="#A0B7C3" d="M1037 517H265Q265 329 368 228Q459 140 602 140Q765 140 874 235L954 98Q910 54 819 22Q705 -20 565 -20Q363 -20 222 117Q65 268 65 523Q65 788 226 948Q370 1091 567 1091Q796 1091 926 962Q1052 838 1052 633Q1052 570 1037 517ZM576 931Q449 931 363 849Q281 771 270 655H863Q863 770 791 847Q712 931 576 931Z" transform="translate(153.516 100) scale(0.009765625 -0.009765625)"/><path fill="#A0B7C3" d="M943 984 849 850Q820 879 746.5 905.0Q673 931 602 931Q447 931 356.0 822.5Q265 714 265 525Q265 337 358.0 238.5Q451 140 616 140Q744 140 874 239L949 79Q796 -20 570 -20Q351 -20 208.0 127.0Q65 274 65 525Q65 781 213.5 936.0Q362 1091 620 1091Q703 1091 800.0 1056.0Q897 1021 943 984Z" transform="translate(164.424 100) scale(0.009765625 -0.009765625)"/><path fill="#A0B7C3" d="M203 921H79V1071H203V1295L393 1368V1071H687V921H393V389Q393 254 438.5 197.0Q484 140 585 140Q658 140 736 177L764 10Q646 -20 505 -20Q378 -20 290.5 74.5Q203 169 203 313Z" transform="translate(174.326 100) scale(0.009765625 -0.009765625)"/><path fill="#A0B7C3" d="" transform="translate(182.256 100) scale(0.009765625 -0.009765625)"/><path fill="#A0B7C3" d="M203 921H79V1071H203V1295L393 1368V1071H687V921H393V389Q393 254 438.5 197.0Q484 140 585 140Q658 140 736 177L764 10Q646 -20 505 -20Q378 -20 290.5 74.5Q203 169 203 313Z" transform="translate(188.281 100) scale(0.009765625 -0.009765625)"/><path fill="#A0B7C3" d="M717 888Q655 931 592 931Q491 931 415.5 838.0Q340 745 340 614V0H150V1071H340V900Q444 1091 649 1091Q700 1091 796 1073Z" transform="translate(196.211 100) scale(0.009765625 -0.009765625)"/><path fill="#A0B7C3" d="M740 123Q626 -20 391 -20Q265 -20 172.5 71.5Q80 163 80 299Q80 462 222.5 574.5Q365 687 586 687Q646 687 722 661Q722 921 490 921Q312 921 216 825L136 984Q190 1028 285.5 1059.5Q381 1091 468 1091Q701 1091 806.5 985.0Q912 879 912 648V264Q912 123 996 76V-19Q880 -19 822.5 14.0Q765 47 740 123ZM722 526Q632 546 596 546Q452 546 361.0 472.0Q270 398 270 297Q270 130 467 130Q611 130 722 267Z" transform="translate(203.984 100) scale(0.009765625 -0.009765625)"/><path fill="#A0B7C3" d="M943 984 849 850Q820 879 746.5 905.0Q673 931 602 931Q447 931 356.0 822.5Q265 714 265 525Q265 337 358.0 238.5Q451 140 616 140Q744 140 874 239L949 79Q796 -20 570 -20Q351 -20 208.0 127.0Q65 274 65 525Q65 781 213.5 936.0Q362 1091 620 1091Q703 1091 800.0 1056.0Q897 1021 943 984Z" transform="translate(214.492 100) scale(0.009765625 -0.009765625)"/><path fill="#A0B7C3" d="M827 0 491 536 325 365V0H135V1510H325V573L735 1071H957L614 664L1033 0Z" transform="translate(224.395 100) scale(0.009765625 -0.009765625)"/><path fill="#A0B7C3" d="M331 1476Q380 1476 414.5 1441.5Q449 1407 449 1359Q449 1310 414.5 1275.5Q380 1241 331 1241Q283 1241 248.5 1275.5Q214 1310 214 1359Q214 1408 248.0 1442.0Q282 1476 331 1476ZM227 0V911H80V1071H417V0Z" transform="translate(234.482 100) scale(0.009765625 -0.009765625)"/><path fill="#A0B7C3" d="M794 0V623Q794 794 742.5 862.5Q691 931 570 931Q505 931 434.0 892.0Q363 853 325 796V0H135V1071H265L325 933Q419 1091 632 1091Q984 1091 984 663V0Z" transform="translate(240.186 100) scale(0.009765625 -0.009765625)"/><path fill="#A0B7C3" d="M96 -293 199 -141Q365 -252 505 -252Q634 -252 708.5 -207.5Q783 -163 783 -97Q783 33 595 33Q563 33 479.0 17.0Q395 1 348 1Q120 1 120 173Q120 226 173.5 269.0Q227 312 306 331Q80 437 80 699Q80 867 197.0 979.0Q314 1091 486 1091Q644 1091 733 1026L828 1140L952 1023L838 937Q911 842 911 689Q911 527 810.0 417.0Q709 307 545 291L388 275Q360 272 313.0 253.5Q266 235 266 205Q266 164 364 164Q407 164 498.0 179.5Q589 195 633 195Q791 195 879.5 119.5Q968 44 968 -90Q968 -238 835.5 -329.0Q703 -420 500 -420Q396 -420 281.0 -383.0Q166 -346 96 -293ZM499 938Q400 938 337.5 868.0Q275 798 275 698Q275 586 335.5 512.5Q396 439 499 439Q600 439 657.0 510.5Q714 582 714 698Q714 798 652.5 868.0Q591 938 499 938Z" transform="translate(251.113 100) scale(0.009765625 -0.009765625)"/><path fill="#A0B7C3" d="M740 123Q626 -20 391 -20Q265 -20 172.5 71.5Q80 163 80 299Q80 462 222.5 574.5Q365 687 586 687Q646 687 722 661Q722 921 490 921Q312 921 216 825L136 984Q190 1028 285.5 1059.5Q381 1091 468 1091Q701 1091 806.5 985.0Q912 879 912 648V264Q912 123 996 76V-19Q880 -19 822.5 14.0Q765 47 740 123ZM722 526Q632 546 596 546Q452 546 361.0 472.0Q270 398 270 297Q270 130 467 130Q611 130 722 267Z" transform="translate(25.000 125) scale(0.009765625 -0.009765625)"/><path fill="#A0B7C3" d="M794 0V623Q794 794 742.5 862.5Q691 931 570 931Q505 931 434.0 892.0Q363 853 325 796V0H135V1071H265L325 933Q419 1091 632 1091Q984 1091 984 663V0Z" transform="translate(35.508 125) scale(0.009765625 -0.009765625)"/><path fill="#A0B7C3" d="M814 1V80Q715 -19 526 -19Q325 -19 200.0 125.0Q75 269 75 509Q75 750 219.0 920.5Q363 1091 562 1091Q728 1091 814 1013V1510H1004V1ZM814 823Q742 931 617 931Q464 931 369.5 817.0Q275 703 275 527Q275 140 627 140Q672 140 735.0 168.5Q798 197 814 229Z" transform="translate(46.436 125) scale(0.009765625 -0.009765625)"/><path fill="#A0B7C3" d="" transform="translate(57.578 125) scale(0.009765625 -0.009765625)"/><path fill="#A0B7C3" d="M203 921H79V1071H203V1295L393 1368V1071H687V921H393V389Q393 254 438.5 197.0Q484 140 585 140Q658 140 736 177L764 10Q646 -20 505 -20Q378 -20 290.5 74.5Q203 169 203 313Z" transform="translate(63.604 125) scale(0.009765625 -0.009765625)"/><path fill="#A0B7C3" d="M717 888Q655 931 592 931Q491 931 415.5 838.0Q340 745 340 614V0H150V1071H340V900Q444 1091 649 1091Q700 1091 796 1073Z" transform="translate(71.533 125) scale(0.009765625 -0.009765625)"/><path fill="#A0B7C3" d="M740 123Q626 -20 391 -20Q265 -20 172.5 71.5Q80 163 80 299Q80 462 222.5 574.5Q365 687 586 687Q646 687 722 661Q722 921 490 921Q312 921 216 825L136 984Q190 1028 285.5 1059.5Q381 1091 468 1091Q701 1091 806.5 985.0Q912 879 912 648V264Q912 123 996 76V-19Q880 -19 822.5 14.0Q765 47 740 123ZM722 526Q632 546 596 546Q452 546 361.0 472.0Q270 398 270 297Q270 130 467 130Q611 130 722 267Z" transform="translate(79.307 125) scale(0.009765625 -0.009765625)"/><path fill="#A0B7C3" d="M428 1476Q477 1476 511.5 1441.5Q546 1407 546 1359Q546 1310 511.5 1275.5Q477 1241 428 1241Q379 1241 345.0 1275.5Q311 1310 311 1359Q311 1408 345.0 1442.0Q379 1476 428 1476ZM18 -420V-250Q214 -250 286.5 -190.5Q359 -131 359 5V911H146V1071H549V9Q549 -212 419.0 -316.0Q289 -420 18 -420Z" transform="translate(89.814 125) scale(0.009765625 -0.009765625)"/><path fill="#A0B7C3" d="M1037 517H265Q265 329 368 228Q459 140 602 140Q765 140 874 235L954 98Q910 54 819 22Q705 -20 565 -20Q363 -20 222 117Q65 268 65 523Q65 788 226 948Q370 1091 567 1091Q796 1091 926 962Q1052 838 1052 633Q1052 570 1037 517ZM576 931Q449 931 363 849Q281 771 270 655H863Q863 770 791 847Q712 931 576 931Z" transform="translate(97.148 125) scale(0.009765625 -0.009765625)"/><path fill="#A0B7C3" d="M943 984 849 850Q820 879 746.5 905.0Q673 931 602 931Q447 931 356.0 822.5Q265 714 265 525Q265 337 358.0 238.5Q451 140 616 140Q744 140 874 239L949 79Q796 -20 570 -20Q351 -20 208.0 127.0Q65 274 65 525Q65 781 213.5 936.0Q362 1091 620 1091Q703 1091 800.0 1056.0Q897 1021 943 984Z" transform="translate(108.057 125) scale(0.009765625 -0.009765625)"/><path fill="#A0B7C3" d="M203 921H79V1071H203V1295L393 1368V1071H687V921H393V389Q393 254 438.5 197.0Q484 140 585 140Q658 140 736 177L764 10Q646 -20 505 -20Q378 -20 290.5 74.5Q203 169 203 313Z" transform="translate(117.959 125) scale(0.009765625 -0.009765625)"/><path fill="#A0B7C3" d="M65 538Q65 786 198.5 938.5Q332 1091 550 1091Q780 1091 907.0 944.5Q1034 798 1034 538Q1034 279 904.0 129.5Q774 -20 550 -20Q321 -20 193.0 131.0Q65 282 65 538ZM265 538Q265 135 550 135Q683 135 758.5 243.0Q834 351 834 538Q834 936 550 936Q420 936 342.5 830.0Q265 724 265 538Z" transform="translate(125.889 125) scale(0.009765625 -0.009765625)"/><path fill="#A0B7C3" d="M717 888Q655 931 592 931Q491 931 415.5 838.0Q340 745 340 614V0H150V1071H340V900Q444 1091 649 1091Q700 1091 796 1073Z" transform="translate(136.621 125) scale(0.009765625 -0.009765625)"/><path fill="#A0B7C3" d="M544 -182Q507 -284 388.5 -352.0Q270 -420 124 -420V-250Q243 -250 328.0 -194.5Q413 -139 413 -59Q413 29 382.0 114.5Q351 200 302 326L12 1071H206L521 243L804 1071H998Z" transform="translate(144.395 125) scale(0.009765625 -0.009765625)"/><path fill="#A0B7C3" d="" transform="translate(154.258 125) scale(0.009765625 -0.009765625)"/><path fill="#A0B7C3" d="M717 888Q655 931 592 931Q491 931 415.5 838.0Q340 745 340 614V0H150V1071H340V900Q444 1091 649 1091Q700 1091 796 1073Z" transform="translate(160.283 125) scale(0.009765625 -0.009765625)"/><path fill="#A0B7C3" d="M1037 517H265Q265 329 368 228Q459 140 602 140Q765 140 874 235L954 98Q910 54 819 22Q705 -20 565 -20Q363 -20 222 117Q65 268 65 523Q65 788 226 948Q370 1091 567 1091Q796 1091 926 962Q1052 838 1052 633Q1052 570 1037 517ZM576 931Q449 931 363 849Q281 771 270 655H863Q863 770 791 847Q712 931 576 931Z" transform="translate(168.057 125) scale(0.009765625 -0.009765625)"/><path fill="#A0B7C3" d="M740 123Q626 -20 391 -20Q265 -20 172.5 71.5Q80 163 80 299Q80 462 222.5 574.5Q365 687 586 687Q646 687 722 661Q722 921 490 921Q312 921 216 825L136 984Q190 1028 285.5 1059.5Q381 1091 468 1091Q701 1091 806.5 985.0Q912 879 912 648V264Q912 123 996 76V-19Q880 -19 822.5 14.0Q765 47 740 123ZM722 526Q632 546 596 546Q452 546 361.0 472.0Q270 398 270 297Q270 130 467 130Q611 130 722 267Z" transform="translate(178.965 125) scale(0.009765625 -0.009765625)"/><path fill="#A0B7C3" d="M65 64 132 244Q291 140 388 140Q564 140 564 288Q564 394 394 470Q263 530 217.5 561.0Q172 592 138.5 631.5Q105 671 88.5 715.5Q72 760 72 811Q72 943 168.0 1017.0Q264 1091 419 1091Q536 1091 714 1017L660 841Q547 931 433 931Q365 931 318.5 899.0Q272 867 272 818Q272 715 389 662L525 600Q650 543 707.0 470.0Q764 397 764 287Q764 143 663.0 61.5Q562 -20 383 -20Q214 -20 65 64Z" transform="translate(189.473 125) scale(0.009765625 -0.009765625)"/><path fill="#A0B7C3" d="M65 538Q65 786 198.5 938.5Q332 1091 550 1091Q780 1091 907.0 944.5Q1034 798 1034 538Q1034 279 904.0 129.5Q774 -20 550 -20Q321 -20 193.0 131.0Q65 282 65 538ZM265 538Q265 135 550 135Q683 135 758.5 243.0Q834 351 834 538Q834 936 550 936Q420 936 342.5 830.0Q265 724 265 538Z" transform="translate(197.568 125) scale(0.009765625 -0.009765625)"/><path fill="#A0B7C3" d="M794 0V623Q794 794 742.5 862.5Q691 931 570 931Q505 931 434.0 892.0Q363 853 325 796V0H135V1071H265L325 933Q419 1091 632 1091Q984 1091 984 663V0Z" transform="translate(208.301 125) scale(0.009765625 -0.009765625)"/><path fill="#A0B7C3" d="M331 1476Q380 1476 414.5 1441.5Q449 1407 449 1359Q449 1310 414.5 1275.5Q380 1241 331 1241Q283 1241 248.5 1275.5Q214 1310 214 1359Q214 1408 248.0 1442.0Q282 1476 331 1476ZM227 0V911H80V1071H417V0Z" transform="translate(219.229 125) scale(0.009765625 -0.009765625)"/><path fill="#A0B7C3" d="M794 0V623Q794 794 742.5 862.5Q691 931 570 931Q505 931 434.0 892.0Q363 853 325 796V0H135V1071H265L325 933Q419 1091 632 1091Q984 1091 984 663V0Z" transform="translate(224.932 125) scale(0.009765625 -0.009765625)"/><path fill="#A0B7C3" d="M96 -293 199 -141Q365 -252 505 -252Q634 -252 708.5 -207.5Q783 -163 783 -97Q783 33 595 33Q563 33 479.0 17.0Q395 1 348 1Q120 1 120 173Q120 226 173.5 269.0Q227 312 306 331Q80 437 80 699Q80 867 197.0 979.0Q314 1091 486 1091Q644 1091 733 1026L828 1140L952 1023L838 937Q911 842 911 689Q911 527 810.0 417.0Q709 307 545 291L388 275Q360 272 313.0 253.5Q266 235 266 205Q266 164 364 164Q407 164 498.0 179.5Q589 195 633 195Q791 195 879.5 119.5Q968 44 968 -90Q968 -238 835.5 -329.0Q703 -420 500 -420Q396 -420 281.0 -383.0Q166 -346 96 -293ZM499 938Q400 938 337.5 868.0Q275 798 275 698Q275 586 335.5 512.5Q396 439 499 439Q600 439 657.0 510.5Q714 582 714 698Q714 798 652.5 868.0Q591 938 499 938Z" transform="translate(235.859 125) scale(0.009765625 -0.009765625)"/><path fill="#A0B7C3" d="M354 281Q416 281 460.0 237.0Q504 193 504 131Q504 69 460.0 24.5Q416 -20 354 -20Q292 -20 248.0 24.5Q204 69 204 131Q204 193 248.0 237.0Q292 281 354 281Z" transform="translate(245.898 125) scale(0.009765625 -0.009765625)"/><path d="M412 27h13m-6-6 6 6-6 6" fill="none" stroke="#A5CFB8" stroke-width="2" stroke-linecap="round" stroke-linejoin="round"/></svg>
